<svg width="30" height="30" viewBox="0 0 30 30" fill="none" xmlns="http://www.w3.org/2000/svg">
<path id="Exclude" fill-rule="evenodd" clip-rule="evenodd" d="M30.0098 15C30.0098 23.2843 23.294 30 15.0098 30C6.72549 30 0.00976562 23.2843 0.00976562 15C0.00976562 6.71573 6.72549 0 15.0098 0C23.294 0 30.0098 6.71573 30.0098 15ZM22.8875 14.9461C23.1973 16.4653 23.067 18.0413 22.5119 19.489L11.7025 8.72171L14.4523 5.9614C14.5511 5.86059 14.6691 5.78066 14.7995 5.72636C14.9298 5.67207 15.0697 5.64451 15.2108 5.64534C15.351 5.64728 15.4893 5.67717 15.6177 5.73326C15.7462 5.78934 15.8622 5.87048 15.9588 5.97194L20.763 10.9131C21.8407 12.0278 22.5777 13.427 22.8875 14.9461ZM7.25895 17.1145C7.13569 15.2078 7.68676 13.3185 8.81576 11.777L19.9413 22.9236C18.5535 24.0298 16.8274 24.625 15.0528 24.6093C14.0126 24.5981 12.985 24.3799 12.0299 23.9675C11.0749 23.5551 10.2115 22.9567 9.49003 22.2072C8.17196 20.8239 7.38222 19.0212 7.25895 17.1145ZM7.45668 5.95087L24.3135 22.8077C24.4123 22.9056 24.4906 23.0222 24.5441 23.1506C24.5976 23.2789 24.6252 23.4166 24.6252 23.5557C24.6252 23.6948 24.5976 23.8325 24.5441 23.9609C24.4906 24.0893 24.4123 24.2058 24.3135 24.3037C24.2156 24.4025 24.099 24.4809 23.9707 24.5344C23.8423 24.5878 23.7046 24.6154 23.5655 24.6154C23.4264 24.6154 23.2887 24.5878 23.1603 24.5344C23.0319 24.4809 22.9154 24.4025 22.8175 24.3037L5.96063 7.44691C5.76224 7.24852 5.65079 6.97945 5.65079 6.69889C5.65079 6.41833 5.76224 6.14925 5.96063 5.95087C6.05886 5.85263 6.17548 5.77471 6.30383 5.72155C6.43217 5.66839 6.56973 5.64103 6.70865 5.64103C6.84757 5.64103 6.98514 5.66839 7.11348 5.72155C7.24183 5.77471 7.35844 5.85263 7.45668 5.95087Z" fill="#B0C1AD"/>
</svg>
