<svg width="30" height="30" viewBox="0 0 30 30" fill="none" xmlns="http://www.w3.org/2000/svg">
<path id="Exclude" fill-rule="evenodd" clip-rule="evenodd" d="M15 30C23.2843 30 30 23.2843 30 15C30 6.71573 23.2843 0 15 0C6.71573 0 0 6.71573 0 15C0 23.2843 6.71573 30 15 30ZM10.3659 7.28732C12.1472 5.50603 13.0378 4.61538 14.1439 4.61538C15.2511 4.61538 16.1417 5.50603 17.922 7.28732L22.4573 11.8216C24.2376 13.6019 25.1282 14.4925 25.1282 15.5997C25.1282 16.7058 24.2376 17.5964 22.4563 19.3777L22.4563 19.3777C20.675 21.159 19.7843 22.0497 18.6782 22.0497C17.5711 22.0497 16.6804 21.159 14.9002 19.3777L14.1486 18.6263L14.1532 18.6226L11.1303 15.5997L11.1267 15.6043L11.1262 15.6038V15.6047L10.3648 14.8434L10.3574 14.836C8.58313 13.0607 7.69393 12.171 7.69393 11.0654C7.69393 9.95926 8.58457 9.06861 10.3659 7.28732ZM11.1263 15.6048L11.1267 15.6043L12.5999 17.078L11.1263 15.6048ZM11.1263 15.6048L11.1262 15.6049V15.6047L11.1263 15.6048ZM12.5999 17.078L14.1486 18.6263L14.1481 18.6267L12.5999 17.078ZM10.0375 16.6925L5.46321 21.2668C5.11126 21.6187 4.9358 21.7942 4.83011 21.9768C4.68944 22.2205 4.61538 22.4968 4.61538 22.7782C4.61538 23.0595 4.68944 23.3359 4.83011 23.5796C4.9358 23.7622 5.11126 23.9387 5.46321 24.2896L5.4767 24.3031C5.81866 24.6451 5.99196 24.8184 6.17326 24.9227C6.41691 25.0634 6.6933 25.1374 6.97464 25.1374C7.25598 25.1374 7.53237 25.0634 7.77601 24.9227C7.95866 24.817 8.13515 24.6405 8.48607 24.2896L13.0604 19.7153L10.0375 16.6925ZM22.9359 9.15064C22.9402 9.42359 22.8747 9.69312 22.7457 9.93367L19.8193 7.00726C20.0597 6.87839 20.329 6.81301 20.6018 6.81732C20.8745 6.82163 21.1417 6.89548 21.3779 7.03189C21.5605 7.13757 21.737 7.31304 22.0879 7.66498L22.1017 7.67869C22.4435 8.02051 22.6167 8.19376 22.721 8.37401C22.8576 8.61037 22.9316 8.87769 22.9359 9.15064Z" fill="#B0C1AD"/>
</svg>
