<svg width="30" height="30" viewBox="0 0 30 30" fill="none" xmlns="http://www.w3.org/2000/svg">
<g id="Group">
<g id="Mask group">
<mask id="mask0_130_497" style="mask-type:luminance" maskUnits="userSpaceOnUse" x="0" y="0" width="30" height="30">
<g id="Group_2">
<path id="Vector" d="M0 0H30V30H0V0Z" fill="white"/>
<g id="Group_3">
<path id="Vector_2" fill-rule="evenodd" clip-rule="evenodd" d="M11.7727 8.07698C11.9227 9.02198 12.1454 9.91736 12.4362 10.4816C12.6646 10.9258 13.1123 11.4901 13.7262 12.1051C14.1473 12.5262 14.5938 12.9197 15 13.2543C15.4062 12.9197 15.8538 12.5262 16.2738 12.1051C16.8877 11.4901 17.3354 10.9258 17.5638 10.4816C17.8546 9.91736 18.0762 9.02198 18.2273 8.07698H11.7727ZM11.0088 5.76929C10.035 5.76929 9.25731 6.57352 9.37039 7.54159C9.51462 8.78313 9.80654 10.4147 10.3846 11.5385C11.16 13.0443 12.9438 14.5881 14.0538 15.4535C14.6135 15.892 15.3865 15.892 15.9462 15.4535C17.0562 14.5881 18.84 13.0443 19.6154 11.5385C20.1935 10.4158 20.4854 8.78313 20.6308 7.54159C20.7427 6.57236 19.965 5.76929 18.9912 5.76929H11.0077H11.0088Z" fill="black"/>
<path id="Vector_3" fill-rule="evenodd" clip-rule="evenodd" d="M18.2273 21.9232C18.0773 20.9782 17.8546 20.0828 17.5639 19.5185C17.3354 19.0755 16.8877 18.5089 16.2739 17.8951C15.8677 17.4921 15.4426 17.1086 15 16.7459C14.5939 17.0805 14.1462 17.4739 13.7262 17.8951C13.1123 18.5089 12.6646 19.0755 12.4362 19.5185C12.1454 20.0828 11.9239 20.9782 11.7727 21.9232H18.2273ZM18.9912 24.2309C19.965 24.2309 20.7427 23.4266 20.6296 22.4597C20.4854 21.217 20.1935 19.5843 19.6154 18.4616C18.84 16.9559 17.0562 15.412 15.9462 14.5466C15.6765 14.3344 15.3432 14.219 15 14.219C14.6568 14.219 14.3236 14.3344 14.0539 14.5466C12.9439 15.412 11.16 16.9559 10.3846 18.4616C9.80657 19.5843 9.51465 21.217 9.36926 22.4597C9.25734 23.4266 10.035 24.2309 11.0089 24.2309H18.9912Z" fill="black"/>
<path id="Vector_4" d="M11.5385 21.6346C11.5385 21.6346 13.8461 19.9038 15 19.9038C16.1538 19.9038 18.4615 21.6346 18.4615 21.6346V22.2115H11.5385V21.6346Z" fill="black"/>
<path id="Vector_5" fill-rule="evenodd" clip-rule="evenodd" d="M8.0769 6.34611C8.0769 6.04009 8.19847 5.7466 8.41486 5.53021C8.63125 5.31383 8.92473 5.19226 9.23075 5.19226H20.7692C21.0752 5.19226 21.3687 5.31383 21.5851 5.53021C21.8015 5.7466 21.9231 6.04009 21.9231 6.34611C21.9231 6.65213 21.8015 6.94561 21.5851 7.162C21.3687 7.37839 21.0752 7.49995 20.7692 7.49995H9.23075C8.92473 7.49995 8.63125 7.37839 8.41486 7.162C8.19847 6.94561 8.0769 6.65213 8.0769 6.34611ZM8.0769 23.6538C8.0769 23.3478 8.19847 23.0543 8.41486 22.8379C8.63125 22.6215 8.92473 22.5 9.23075 22.5H20.7692C21.0752 22.5 21.3687 22.6215 21.5851 22.8379C21.8015 23.0543 21.9231 23.3478 21.9231 23.6538C21.9231 23.9598 21.8015 24.2533 21.5851 24.4697C21.3687 24.6861 21.0752 24.8076 20.7692 24.8076H9.23075C8.92473 24.8076 8.63125 24.6861 8.41486 24.4697C8.19847 24.2533 8.0769 23.9598 8.0769 23.6538Z" fill="black"/>
</g>
</g>
</mask>
<g mask="url(#mask0_130_497)">
<path id="Vector_6" d="M15 30C23.2843 30 30 23.2843 30 15C30 6.71573 23.2843 0 15 0C6.71573 0 0 6.71573 0 15C0 23.2843 6.71573 30 15 30Z" fill="#B0C1AD"/>
</g>
</g>
</g>
</svg>
