<svg width="30" height="30" viewBox="0 0 30 30" fill="none" xmlns="http://www.w3.org/2000/svg">
<path id="Exclude" fill-rule="evenodd" clip-rule="evenodd" d="M30 15C30 23.2843 23.2843 30 15 30C6.71573 30 0 23.2843 0 15C0 6.71573 6.71573 0 15 0C23.2843 0 30 6.71573 30 15ZM23.1023 4.61538C22.7794 4.61538 22.4697 4.74363 22.2414 4.97192L20.4099 6.80218C20.1816 7.03054 20.0534 7.34022 20.0534 7.66312C20.0534 7.98602 20.1816 8.2957 20.4099 8.52406L22.2414 10.3543C22.4697 10.5826 22.7794 10.7109 23.1023 10.7109C23.4252 10.7109 23.7349 10.5826 23.9633 10.3543L25.7935 8.52406C26.0218 8.2957 26.1501 7.98602 26.1501 7.66312C26.1501 7.34022 26.0218 7.03054 25.7935 6.80218L23.9633 4.97192C23.7349 4.74363 23.4252 4.61538 23.1023 4.61538ZM11.5326 24.1026H9.706C8.89859 24.1026 8.12425 23.7818 7.55333 23.2109C6.9824 22.64 6.66166 21.8656 6.66166 21.0582V19.2316H11.5326V24.1026ZM11.5326 18.0139V13.1429H6.66166V18.0139H11.5326ZM12.7503 18.0139H17.6213V13.1429H12.7503V18.0139ZM17.6213 19.2316H12.7503V24.1026H17.6213V19.2316ZM18.839 18.0139V13.1429H23.71V18.0139H18.839ZM23.71 19.2316H18.839V24.1026H20.6656C21.473 24.1026 22.2474 23.7818 22.8183 23.2109C23.3892 22.64 23.71 21.8656 23.71 21.0582V19.2316ZM11.5326 11.9252H6.66166V10.0986C6.66166 9.29118 6.9824 8.51684 7.55333 7.94592C8.12425 7.37499 8.89859 7.05425 9.706 7.05425H11.5326V11.9252ZM12.7503 7.05425V11.9252H17.6213V7.05425H12.7503Z" fill="#B0C1AD"/>
</svg>
